<svg xmlns="http://www.w3.org/2000/svg" xmlns:xlink="http://www.w3.org/1999/xlink" width="500" zoomAndPan="magnify" viewBox="0 0 375 374.999991" height="500" preserveAspectRatio="xMidYMid meet" version="1.0"><defs><g/><clipPath id="28659f8b39"><rect x="0" width="110" y="0" height="183"/></clipPath><clipPath id="9b5868e9d7"><path d="M 209.210938 212.378906 L 250.566406 212.378906 L 250.566406 253.734375 L 209.210938 253.734375 Z M 209.210938 212.378906 " clip-rule="nonzero"/></clipPath><clipPath id="20996de94c"><path d="M 229.890625 212.378906 C 218.46875 212.378906 209.210938 221.636719 209.210938 233.058594 C 209.210938 244.476562 218.46875 253.734375 229.890625 253.734375 C 241.308594 253.734375 250.566406 244.476562 250.566406 233.058594 C 250.566406 221.636719 241.308594 212.378906 229.890625 212.378906 Z M 229.890625 212.378906 " clip-rule="nonzero"/></clipPath><clipPath id="9ccb37b24c"><path d="M 0.210938 0.378906 L 41.566406 0.378906 L 41.566406 41.734375 L 0.210938 41.734375 Z M 0.210938 0.378906 " clip-rule="nonzero"/></clipPath><clipPath id="a344f6a37d"><path d="M 20.890625 0.378906 C 9.46875 0.378906 0.210938 9.636719 0.210938 21.058594 C 0.210938 32.476562 9.46875 41.734375 20.890625 41.734375 C 32.308594 41.734375 41.566406 32.476562 41.566406 21.058594 C 41.566406 9.636719 32.308594 0.378906 20.890625 0.378906 Z M 20.890625 0.378906 " clip-rule="nonzero"/></clipPath><clipPath id="53601945a1"><rect x="0" width="42" y="0" height="42"/></clipPath></defs><g transform="matrix(1, 0, 0, 1, 123, 106)"><g clip-path="url(#28659f8b39)"><g fill="#ffffff" fill-opacity="1"><g transform="translate(2.623801, 142.728847)"><g><path d="M 103.546875 -112.078125 C 102.335938 -110.867188 100.640625 -110.414062 98.453125 -110.71875 C 96.273438 -111.019531 94.335938 -111.171875 92.640625 -111.171875 C 89.128906 -111.171875 85.617188 -111.171875 82.109375 -111.171875 C 78.597656 -111.171875 75.085938 -111.171875 71.578125 -111.171875 C 69.878906 -111.171875 68.695312 -110.59375 68.03125 -109.4375 C 67.363281 -108.289062 67 -106.929688 66.9375 -105.359375 C 66.875 -103.785156 66.84375 -102.394531 66.84375 -101.1875 C 66.84375 -85.195312 66.84375 -69.238281 66.84375 -53.3125 C 66.84375 -37.382812 66.90625 -21.429688 67.03125 -5.453125 C 67.03125 -3.515625 66.515625 -2.242188 65.484375 -1.640625 C 64.453125 -1.035156 63.03125 -0.789062 61.21875 -0.90625 C 59.28125 -1.03125 57.3125 -1.117188 55.3125 -1.171875 C 53.3125 -1.234375 51.285156 -1.207031 49.234375 -1.09375 C 47.898438 -1.09375 46.320312 -0.816406 44.5 -0.265625 C 42.6875 0.273438 41.175781 0 39.96875 -1.09375 C 39 -2.0625 38.515625 -3.632812 38.515625 -5.8125 C 38.515625 -7.988281 38.515625 -9.6875 38.515625 -10.90625 C 38.515625 -19.863281 38.539062 -28.820312 38.59375 -37.78125 C 38.65625 -46.75 38.6875 -55.648438 38.6875 -64.484375 C 38.6875 -69.085938 38.6875 -73.660156 38.6875 -78.203125 C 38.6875 -82.742188 38.628906 -87.253906 38.515625 -91.734375 C 38.515625 -92.941406 38.632812 -94.578125 38.875 -96.640625 C 39.113281 -98.703125 39.203125 -100.789062 39.140625 -102.90625 C 39.085938 -105.03125 38.695312 -106.847656 37.96875 -108.359375 C 37.238281 -109.867188 35.90625 -110.625 33.96875 -110.625 C 29.125 -110.625 24.3125 -110.59375 19.53125 -110.53125 C 14.75 -110.476562 9.9375 -110.390625 5.09375 -110.265625 C 4.476562 -110.265625 3.804688 -110.296875 3.078125 -110.359375 C 2.359375 -110.421875 1.753906 -110.691406 1.265625 -111.171875 C 0.785156 -111.660156 0.484375 -112.238281 0.359375 -112.90625 C 0.242188 -113.570312 0.1875 -114.207031 0.1875 -114.8125 C 0.0625 -117.59375 0 -120.34375 0 -123.0625 C 0 -125.789062 0 -128.488281 0 -131.15625 C 0 -131.632812 0.03125 -132.113281 0.09375 -132.59375 C 0.15625 -133.082031 0.367188 -133.507812 0.734375 -133.875 C 1.210938 -134.363281 1.753906 -134.664062 2.359375 -134.78125 C 2.960938 -134.90625 3.566406 -134.96875 4.171875 -134.96875 C 20.035156 -134.601562 35.835938 -134.421875 51.578125 -134.421875 C 67.328125 -134.421875 83.078125 -134.539062 98.828125 -134.78125 C 99.671875 -134.78125 100.515625 -134.75 101.359375 -134.6875 C 102.210938 -134.632812 102.941406 -134.304688 103.546875 -133.703125 C 104.148438 -133.097656 104.539062 -132.335938 104.71875 -131.421875 C 104.90625 -130.515625 105.054688 -129.640625 105.171875 -128.796875 C 105.171875 -127.335938 105.203125 -125.878906 105.265625 -124.421875 C 105.328125 -122.972656 105.359375 -121.523438 105.359375 -120.078125 C 105.484375 -118.867188 105.515625 -117.6875 105.453125 -116.53125 C 105.390625 -115.382812 105.054688 -114.328125 104.453125 -113.359375 C 104.328125 -112.992188 104.023438 -112.566406 103.546875 -112.078125 Z M 103.546875 -112.078125 "/></g></g></g></g></g><g clip-path="url(#9b5868e9d7)"><g clip-path="url(#20996de94c)"><g transform="matrix(1, 0, 0, 1, 209, 212)"><g clip-path="url(#53601945a1)"><g clip-path="url(#9ccb37b24c)"><g clip-path="url(#a344f6a37d)"><path fill="#ffffff" d="M 0.210938 0.378906 L 41.566406 0.378906 L 41.566406 41.734375 L 0.210938 41.734375 Z M 0.210938 0.378906 " fill-opacity="1" fill-rule="nonzero"/></g></g></g></g></g></g></svg>